<svg xmlns="http://www.w3.org/2000/svg" width="20" height="20" fill="none"><g clip-path="url(#clip0)"><path fill="#FFCE00" d="M10.277 19.996c5.521-.154 9.872-4.753 9.719-10.274C19.841 4.202 15.242-.15 9.722.004 4.2.157-.15 4.757.004 10.278c.153 5.52 4.753 9.871 10.274 9.718z"></path><path fill="#261F11" d="M11.731 5.866c-.646.208-1.431.254-1.755.254-.323 0-1.108-.046-1.755-.254-1.224-.416-3.164-.67-4.665-.623-1.109.023-2.24.184-2.956.323a.568.568 0 00-.439.693l.07.323a.57.57 0 00.369.393.337.337 0 01.23.208c.14.346.809 2.378 1.202 3.14.3.624 1.131 1.155 3.071 1.155 2.748 0 3.695-1.801 4.134-2.98a8.8 8.8 0 00.185-.576c.092-.324.277-.647.37-.693a.426.426 0 01.161-.046c.07 0 .116.023.185.046.092.046.277.37.37.693.069.23.138.461.184.577.439 1.178 1.386 3.002 4.134 2.98 1.94 0 2.771-.532 3.072-1.156.37-.762 1.062-2.794 1.2-3.14a.343.343 0 01.232-.208.577.577 0 00.37-.393l.068-.323a.583.583 0 00-.438-.693c-.716-.139-1.848-.3-2.957-.323-1.455-.047-3.418.207-4.642.623z"></path><path fill="#483D23" d="M11.292 7.69c.046 1.317 1.34 2.61 2.564 2.91 1.778.44 3.118.047 3.88-1.593.23-.485.716-1.57.692-2.148-.046-.993-1.316-.831-2.124-.854-.093 0-5.104-.139-5.012 1.686zm-2.54 0C8.706 9.008 7.39 10.3 6.19 10.6c-1.779.44-3.118.047-3.88-1.593-.231-.485-.716-1.57-.693-2.148.046-.993 1.316-.831 2.125-.854.092 0 5.104-.139 5.011 1.686z"></path><path fill="#562912" d="M12.125 15.104c-.254 0-.531-.023-.809-.07-.277-.045-.462-.3-.415-.554.046-.277.277-.438.554-.415 1.547.23 2.91-.347 3.51-1.501.116-.231.416-.347.647-.208.23.115.346.415.208.646-.647 1.34-2.056 2.102-3.695 2.102z"></path></g><defs><clipPath id="clip0"><path fill="#fff" d="M0 0h20v20H0z"></path></clipPath></defs></svg>